<?xml version="1.0" encoding="iso-8859-1"?>
<!-- Uploaded to: SVG Repo, www.svgrepo.com, Generator: SVG Repo Mixer Tools -->
<svg fill="#000000" height="800px" width="800px" version="1.1" id="Layer_1" xmlns="http://www.w3.org/2000/svg" xmlns:xlink="http://www.w3.org/1999/xlink" 
	 viewBox="0 0 512 512" xml:space="preserve">
<g>
	<g>
		<path d="M447.145,269.965c-0.777-0.449-1.57-0.865-2.362-1.288c0.278-4.192,0.434-8.416,0.434-12.676
			c0-4.261-0.156-8.486-0.434-12.676c0.791-0.424,1.586-0.84,2.364-1.289c39.862-23.016,53.571-74.171,30.555-114.034
			c-23.014-39.861-74.171-53.571-114.035-30.554c-0.794,0.459-1.569,0.948-2.347,1.432c-6.987-4.698-14.305-8.937-21.907-12.685
			c0.029-0.907,0.065-1.812,0.065-2.717C339.478,37.448,302.03,0,256,0s-83.478,37.448-83.478,83.478
			c0,0.905,0.037,1.81,0.066,2.714c-7.602,3.75-14.92,7.988-21.907,12.685c-0.779-0.484-1.555-0.975-2.35-1.434
			C108.466,74.428,57.312,88.136,34.298,128c-23.016,39.861-9.31,91.017,30.556,114.036c0.777,0.449,1.572,0.865,2.363,1.288
			c-0.279,4.192-0.435,8.416-0.435,12.676c0,4.261,0.156,8.485,0.434,12.676c-0.791,0.424-1.587,0.841-2.365,1.29
			C24.988,292.983,11.283,344.139,34.298,384c23.017,39.867,74.175,53.569,114.032,30.555c0.795-0.459,1.57-0.949,2.35-1.434
			c6.987,4.698,14.305,8.937,21.907,12.685c-0.029,0.905-0.066,1.81-0.066,2.715C172.522,474.552,209.97,512,256,512
			s83.478-37.448,83.478-83.478c0-0.905-0.037-1.81-0.066-2.714c7.602-3.75,14.92-7.987,21.907-12.685
			c0.779,0.484,1.555,0.975,2.35,1.434c13.114,7.572,27.444,11.168,41.599,11.167c28.87-0.002,56.991-14.974,72.435-41.722
			C500.718,344.139,487.01,292.983,447.145,269.965z M448.785,144.696c12.054,20.878,7.316,46.919-9.993,62.385
			c-8.727-32.58-25.943-61.724-49.136-84.892C411.729,114.872,436.71,123.784,448.785,144.696z M256,33.391
			c24.11,0,44.291,17.123,49.031,39.847c-15.644-4.202-32.078-6.456-49.031-6.456s-33.386,2.254-49.031,6.456
			C211.71,50.514,231.89,33.391,256,33.391z M63.215,144.696c12.219-21.165,37.274-29.803,59.133-22.51
			c-23.196,23.168-40.413,52.314-49.141,84.896C55.899,191.614,51.16,165.574,63.215,144.696z M63.215,367.304
			c-12.055-20.88-7.316-46.92,9.992-62.385c8.729,32.582,25.945,61.728,49.142,84.896
			C100.523,397.097,75.451,388.497,63.215,367.304z M256,478.609c-24.11,0-44.291-17.123-49.031-39.847
			c15.645,4.201,32.078,6.456,49.031,6.456s33.386-2.254,49.031-6.456C300.291,461.486,280.109,478.609,256,478.609z M256,411.826
			c-85.922,0-155.826-69.904-155.826-155.826S170.077,100.174,256,100.174S411.826,170.077,411.826,256S341.922,411.826,256,411.826
			z M448.785,367.304c-12.074,20.913-37.054,29.826-59.129,22.507c23.195-23.167,40.41-52.312,49.138-84.892
			C456.101,320.386,460.839,346.426,448.785,367.304z"/>
	</g>
</g>
<g>
	<g>
		<path d="M256,133.565c-67.51,0-122.435,54.924-122.435,122.435c0,67.511,54.924,122.435,122.435,122.435
			S378.435,323.511,378.435,256C378.435,188.489,323.51,133.565,256,133.565z M256,345.043c-49.099,0-89.043-39.945-89.043-89.043
			s39.945-89.043,89.043-89.043s89.043,39.945,89.043,89.043S305.098,345.043,256,345.043z"/>
	</g>
</g>
</svg>